<svg xmlns="http://www.w3.org/2000/svg" width="120" height="48" viewBox="0 0 120 48">
  <g id="Presidencia">
    <g>
      <g>
        <path d="m69.26,26.19c.36-.18.72-.27,1.07-.27.54,0,1.07.18,1.61.54.45.45.72.89.72,1.43,0,.27-.09.54-.27.89l-6.44,13.5c-.27.45-.54.8-.89,1.07-.45.27-.89.36-1.43.36-.45,0-.89-.09-1.43-.36-.45-.27-.72-.54-.98-1.07l-6.44-13.5c-.09-.27-.18-.54-.18-.89,0-.54.27-1.07.72-1.43.45-.45,1.07-.54,1.61-.54.45,0,.72.09,1.07.27.36.18.54.54.72.89l4.83,10.55,4.83-10.55c.36-.36.63-.72.89-.89,0,0-.01,0-.01,0Z" style="fill: #fff; stroke-width: 0px;"/>
        <path d="m74.82,43c-.45-.45-.54-.98-.54-1.7v-13.23c0-.72.18-1.25.54-1.61.45-.45.89-.54,1.61-.54s1.25.18,1.7.54.63.89.63,1.61v13.32c0,.72-.27,1.25-.63,1.7-.45.45-.98.63-1.7.63s-1.16-.27-1.61-.72Z" style="fill: #fff; stroke-width: 0px;"/>
        <path d="m82.23,43.09c-.36-.36-.54-.89-.54-1.61v-13.41c0-.72.18-1.25.54-1.61.36-.45.89-.54,1.52-.54h4.92c1.88,0,3.49.36,4.92,1.07,1.43.72,2.41,1.7,3.22,3.04.8,1.34,1.07,2.86,1.07,4.74s-.36,3.49-1.07,4.83c-.72,1.34-1.79,2.32-3.13,3.04-1.43.72-3.04,1.07-5.01,1.07h-4.92c-.63-.09-1.16-.27-1.52-.63h0Zm6.17-3.13c1.7,0,2.95-.45,3.76-1.25.8-.89,1.25-2.15,1.25-3.84s-.45-3.04-1.25-3.84c-.89-.8-2.06-1.25-3.76-1.25h-2.24v10.28l2.24-.09h0Z" style="fill: #fff; stroke-width: 0px;"/>
        <path d="m116.57,41.66c0,.54-.27,1.07-.63,1.43-.45.36-.89.54-1.52.54-.36,0-.72-.09-1.07-.27-.36-.18-.54-.54-.72-.89l-1.07-2.5h-7.87l-1.07,2.5c-.18.45-.45.72-.72.89-.36.18-.63.27-1.07.27-.54,0-1.07-.18-1.52-.54-.45-.45-.72-.89-.72-1.43,0-.27.09-.54.27-.89l6.44-13.5c.27-.45.54-.8.89-1.07s.89-.36,1.43-.36.89.09,1.43.36.72.54.89,1.07l6.53,13.5c.09.36.09.63.09.89h.01Zm-6.44-5.19l-2.41-5.54-2.41,5.54h4.83,0Z" style="fill: #fff; stroke-width: 0px;"/>
        <path d="m56.84,12.69c-.63-.36-1.16-.89-1.52-1.52-.27-.72-.45-1.52-.45-2.41s.18-1.7.54-2.32c.36-.72.89-1.25,1.52-1.52s1.43-.54,2.32-.54c1.07,0,1.97.27,2.77.8.09.09.27.27.27.36s.09.27.09.45c0,.27-.09.45-.27.63s-.36.27-.54.27c-.09,0-.27,0-.36-.09s-.27-.09-.36-.18c-.27-.18-.54-.27-.8-.45-.27-.09-.54-.09-.8-.09-.72,0-1.25.27-1.61.72-.36.45-.54,1.07-.54,2.06s.18,1.52.54,2.06c.36.45.89.63,1.61.63.27,0,.45-.09.72-.09.27-.09.54-.18.89-.36.18-.09.27-.18.45-.18.09-.09.18-.09.27-.09.27,0,.45.09.54.27.09.27.27.45.27.63s-.09.36-.09.45c-.09.09-.18.27-.27.36-.8.54-1.7.8-2.77.8-.89-.09-1.7-.27-2.41-.63h0v-.02h-.01Z" style="fill: #fff; stroke-width: 0px;"/>
        <path d="m64.43,12.69c-.63-.36-1.16-.89-1.52-1.52-.36-.72-.54-1.52-.54-2.41s.18-1.7.54-2.32c.36-.72.89-1.25,1.52-1.52.63-.27,1.43-.63,2.32-.63s1.7.18,2.32.54,1.16.89,1.52,1.52c.36.72.54,1.43.54,2.32s-.18,1.7-.54,2.32c-.36.72-.89,1.25-1.52,1.52s-1.43.72-2.32.72-1.61-.18-2.32-.54h0Zm3.84-1.88c.36-.45.63-1.16.63-2.06s-.18-1.52-.54-2.06c-.36-.45-.89-.72-1.52-.72s-1.16.27-1.52.72-.72,1.25-.72,2.06.18,1.52.54,2.06c.36.45.89.72,1.52.72.8,0,1.25-.27,1.61-.72Z" style="fill: #fff; stroke-width: 0px;"/>
        <path d="m72.12,12.96c-.18-.18-.27-.45-.27-.8v-6.8c0-.36.09-.63.27-.8.18-.18.45-.27.8-.27s.63.09.89.27c.27.27.27.45.27.8v5.99h2.86c.72,0,1.07.36,1.07.89,0,.36-.09.54-.27.72s-.54.27-.8.27h-4.11c-.27,0-.45-.09-.72-.27h.01Z" style="fill: #fff; stroke-width: 0px;"/>
        <path d="m79.72,12.69c-.63-.36-1.16-.89-1.52-1.52-.36-.72-.54-1.52-.54-2.41s.18-1.7.54-2.32.89-1.25,1.52-1.52,1.43-.63,2.24-.63,1.7.18,2.32.54,1.16.89,1.52,1.52c.36.72.54,1.43.54,2.32s-.18,1.7-.54,2.32c-.36.72-.89,1.25-1.52,1.52s-1.43.72-2.32.72-1.61-.18-2.24-.54h0Zm3.84-1.88c.36-.45.54-1.16.54-2.06s-.18-1.52-.54-2.06c-.36-.36-.89-.63-1.61-.63s-1.16.27-1.52.72c-.36.45-.54,1.16-.54,2.06s.18,1.52.54,2.06c.36.45.89.72,1.52.72.72-.09,1.16-.36,1.61-.8h0Z" style="fill: #fff; stroke-width: 0px;"/>
        <path d="m95.65,4.55c.18.27.27.45.27.8v6.8c0,.36-.09.54-.27.72s-.45.27-.72.27-.54-.09-.72-.27-.27-.45-.27-.72v-3.67l-1.43,2.68c-.09.27-.27.45-.45.54s-.36.18-.54.18-.45-.09-.54-.18c-.18-.09-.27-.27-.45-.54l-1.43-2.5v3.58c0,.27-.09.54-.27.72s-.45.27-.72.27c-.36,0-.54-.09-.72-.27s-.27-.45-.27-.72v-6.88c0-.36.09-.63.27-.8.18-.18.45-.27.72-.27s.45.09.63.18c.18.09.36.27.45.54l2.24,4.29,2.24-4.29c.27-.54.54-.72,1.07-.72.45,0,.63.09.89.27h.02Z" style="fill: #fff; stroke-width: 0px;"/>
        <path d="m103.95,9.38c.27.36.45.89.45,1.43s-.09.89-.36,1.25-.63.63-1.07.89-1.07.27-1.61.27h-3.31c-.36,0-.54-.09-.8-.27s-.27-.45-.27-.8v-6.8c0-.36.09-.63.27-.8s.45-.27.8-.27h3.22c.89,0,1.7.27,2.24.63s.8.98.8,1.7c0,.45-.09.89-.36,1.25-.27.36-.54.63-.98.72.27.18.72.45.98.8h0Zm-4.83-1.61h1.61c.45,0,.72-.09.89-.18s.36-.45.36-.72-.09-.54-.27-.72-.54-.27-.89-.27h-1.61l-.09,1.88h0Zm2.77,3.49c.18-.09.27-.45.27-.72s-.09-.54-.27-.72-.54-.27-.98-.27h-1.88v1.88h1.88c.45.09.8,0,.98-.18h0Z" style="fill: #fff; stroke-width: 0px;"/>
        <path d="m105.12,12.96c-.27-.27-.27-.45-.27-.8v-6.8c0-.36.09-.63.27-.8s.45-.27.8-.27.63.09.89.27c.27.27.27.45.27.8v6.71c0,.36-.09.63-.27.8-.18.18-.45.27-.89.27s-.54,0-.8-.18h0Z" style="fill: #fff; stroke-width: 0px;"/>
        <path d="m116.57,12.24c0,.27-.09.54-.36.72-.27.18-.45.27-.72.27-.18,0-.36-.09-.54-.18s-.27-.27-.36-.45l-.54-1.25h-4.02l-.54,1.25c-.09.27-.27.36-.36.45-.18.09-.36.18-.54.18-.27,0-.54-.09-.72-.27s-.36-.45-.36-.72c0-.18.09-.27.09-.45l3.31-6.8c.09-.27.27-.45.45-.54.27-.09.45-.18.72-.18s.45.09.72.18c.27.09.36.27.45.54l3.31,6.8v.45h.01Zm-3.22-2.68l-1.25-2.77-1.25,2.77h2.5Z" style="fill: #fff; stroke-width: 0px;"/>
        <path d="m55.05,22.61c-.06-.06-.09-.15-.09-.27v-5.1c0-.09.09-.18.09-.27s.09-.09.27-.09h1.88c.54,0,1.07.09,1.43.45.36.27.54.72.54,1.25s-.18.89-.54,1.25-.8.45-1.43.45h-1.61v2.06c0,.09-.09.18-.09.27-.06.06-.15.09-.27.09-.18.09-.18,0-.18-.09h0Zm2.15-2.77c.89,0,1.34-.45,1.34-1.16s-.45-1.16-1.34-1.16h-1.52v2.24l1.52.09h0Z" style="fill: #fff; stroke-width: 0px;"/>
        <path d="m60.95,22.35c-.45-.27-.72-.54-.89-.98-.27-.45-.36-.89-.36-1.52,0-.54.09-1.07.27-1.52s.54-.72.89-.98c.45-.27.89-.36,1.43-.36s.98.09,1.43.36c.45.27.72.54.89.98.27.45.27.89.27,1.52s-.09,1.07-.36,1.52-.54.72-.89.98c-.45.27-.89.36-1.43.36-.45.09-.89-.09-1.25-.36h0Zm2.77-.8c.36-.45.54-.98.54-1.7s-.18-1.34-.54-1.7-.8-.54-1.43-.54-1.07.27-1.43.54c-.36.45-.54.98-.54,1.7s.18,1.34.54,1.7c.36.45.8.63,1.43.63s1.07-.18,1.43-.63h0Z" style="fill: #fff; stroke-width: 0px;"/>
        <path d="m67.12,22.61c-.06-.06-.09-.15-.09-.27v-4.83h-1.7c-.09,0-.18,0-.27-.09-.06-.06-.09-.15-.09-.27,0-.09.09-.18.09-.27s.09-.09.27-.09h4.2c.09,0,.18,0,.27.09.06.06.09.15.09.27,0,.09-.09.18-.09.27s-.09.09-.27.09h-1.7v4.83c0,.09-.09.18-.09.27-.06.06-.15.09-.27.09-.27,0-.36,0-.36-.09h0Z" style="fill: #fff; stroke-width: 0px;"/>
        <path d="m70.33,22.61c-.06-.06-.09-.15-.09-.27v-5.1c0-.09.09-.18.09-.27.06-.06.15-.09.27-.09h3.04c.09,0,.18,0,.27.09.06.06.09.15.09.27,0,.09-.09.18-.09.27-.06.06-.15.09-.27.09h-2.68v2.06h2.5c.09,0,.18,0,.27.09.06.06.09.15.09.27,0,.09-.09.18-.09.27-.06.06-.15.09-.27.09h-2.5v1.79h2.68c.09,0,.18,0,.27.09.06.06.09.15.09.27,0,.09-.09.18-.09.27-.06.06-.15.09-.27.09h-3.04c-.09-.09-.18-.18-.27-.27h0Z" style="fill: #fff; stroke-width: 0px;"/>
        <path d="m79.29,17.07c.06.06.09.15.09.27v5.1c0,.09-.09.18-.09.27s-.09.09-.27.09c-.09,0-.18-.09-.27-.09l-3.31-4.47v4.29c0,.09-.09.18-.09.27-.06.06-.15.09-.27.09-.09,0-.18,0-.27-.09-.06-.06-.09-.15-.09-.27v-5.1c0-.09.09-.18.09-.27.06-.06.15-.09.27-.09.09,0,.18.09.27.09l3.31,4.47v-4.29c0-.09.09-.18.09-.27.06-.06.15-.09.27-.09.09,0,.18,0,.27.09h0Z" style="fill: #fff; stroke-width: 0px;"/>
        <path d="m81.61,22.44c-.45-.27-.72-.54-.89-.98-.27-.45-.36-.89-.36-1.52s.09-1.07.36-1.52.54-.72.89-.98c.45-.27.89-.36,1.43-.36.36,0,.72.09,1.07.18.36.09.54.27.89.54.09.09.09.18.09.27s0,.09-.09.18-.09.09-.18.09-.09,0-.27-.09c-.27-.27-.54-.36-.72-.45-.27-.09-.45-.09-.8-.09-.63,0-1.07.27-1.43.54-.36.45-.54.98-.54,1.7s.18,1.34.54,1.7c.36.45.8.54,1.43.54.27,0,.54-.09.72-.09.27-.09.45-.27.72-.45.09-.09.18-.09.27-.09s.09,0,.18.09.09.09.09.18-.09.18-.09.27c-.27.27-.54.45-.89.45-.36.09-.63.18-1.07.18s-.98-.09-1.34-.27h0v-.02h-.01Z" style="fill: #fff; stroke-width: 0px;"/>
        <path d="m85.98,22.61c-.09,0-.09-.09-.09-.18v-5.1c0-.09.09-.18.09-.27.06-.06.15-.09.27-.09.09,0,.18,0,.27.09.06.06.09.15.09.27v5.1c0,.09-.09.18-.09.27-.06.06-.15.09-.27.09-.18,0-.18-.09-.27-.18Z" style="fill: #fff; stroke-width: 0px;"/>
        <path d="m92.79,22.52c0,.09-.09.09-.09.18-.06.06-.15.09-.27.09-.09,0-.27-.09-.27-.18l-.54-1.34h-3.04l-.54,1.34c-.09.09-.18.18-.27.18s-.18,0-.27-.09c-.06-.06-.09-.15-.09-.27s.03-.15.09-.09l2.32-5.1c.06-.06.09-.12.09-.18.06-.06.15-.09.27-.09.09,0,.18,0,.27.09.06.06.09.12.09.18l2.32,5.1c-.09,0-.09.09-.09.18h.02Zm-1.52-1.79l-1.25-2.86-1.25,2.86h2.5Z" style="fill: #fff; stroke-width: 0px;"/>
        <path d="m95.47,22.61c-.06-.06-.09-.15-.09-.27v-5.1c0-.09.09-.18.09-.27.06-.06.15-.09.27-.09h1.52c.89,0,1.61.27,2.15.72.54.54.72,1.25.72,2.15s-.27,1.61-.72,2.15c-.54.54-1.25.72-2.15.72h-1.52c-.18.18-.18.09-.27,0h0Zm1.79-.45c1.52,0,2.24-.72,2.24-2.32s-.72-2.32-2.24-2.32h-1.25v4.65h1.25Z" style="fill: #fff; stroke-width: 0px;"/>
        <path d="m101.27,22.61c-.06-.06-.09-.15-.09-.27v-5.1c0-.09.09-.18.09-.27s.09-.09.27-.09h3.04c.09,0,.18,0,.27.09.06.06.09.15.09.27,0,.09-.09.18-.09.27-.06.06-.15.09-.27.09h-2.68v2.06h2.5c.09,0,.18,0,.27.09.06.06.09.15.09.27,0,.09-.09.18-.09.27-.06.06-.15.09-.27.09h-2.5v1.79h2.68c.09,0,.18,0,.27.09.06.06.09.15.09.27,0,.09-.09.18-.09.27-.06.06-.15.09-.27.09h-3.04c-.18-.09-.27-.09-.27-.27h0Z" style="fill: #fff; stroke-width: 0px;"/>
        <path d="m107.62,22.61c-.06-.06-.09-.15-.09-.27v-5.1c0-.09.09-.18.09-.27.06-.06.15-.09.27-.09s.21.03.27.09.09.15.09.27v4.92h2.68c.09,0,.18,0,.27.09.06.06.09.15.09.27,0,.18-.09.18-.09.27-.06.06-.15.09-.27.09h-2.95c-.12-.12-.24-.21-.36-.27h0Z" style="fill: #fff; stroke-width: 0px;"/>
        <path d="m116.57,22.52c0,.09-.09.09-.09.18-.06.06-.15.09-.27.09-.09,0-.27-.09-.27-.18l-.54-1.34h-3.04l-.54,1.34c-.09.09-.18.18-.27.18s-.18,0-.27-.09c-.06-.06-.09-.15-.09-.27s.03-.15.09-.09l2.32-5.1c.06-.06.09-.12.09-.18.06-.06.15-.09.27-.09.09,0,.18,0,.27.09.06.06.09.12.09.18l2.32,5.1c-.09,0-.09.09-.09.18h.02Zm-1.34-1.79l-1.25-2.86-1.25,2.86h2.5Z" style="fill: #fff; stroke-width: 0px;"/>
      </g>
      <g>
        <path d="m32.08,23.96c-.45,6.08,4.65,10.19,9.75,13.05.45.27.89-.09.89-.54v-2.32c0-.36-.27-.63-.54-.72-3.4-1.25-5.99-4.74-5.72-8.23.18-3.31,2.5-6.44,5.81-7.69.27-.09.45-.36.45-.72v-2.15c0-.36-.45-.54-.72-.36-1.7,1.16-3.49,2.15-5.28,3.31-2.32,1.43-4.47,3.49-4.65,6.35h0v.02h.01Z" style="fill: #e8a046; stroke-width: 0px;"/>
        <path d="m23.75,21.54c-.98,1.7-1.61,3.67-1.43,5.63.27,1.88,1.25,3.58,2.5,5.01,2.68,3.22,6.08,5.81,9.66,8.05,2.06,1.25,4.2,2.41,6.35,3.4,0,0,.09.09.27.09h.27l.54-.09c.54,0,.89-.45.89-.89h0c0-.45-.27-.72-.54-.89h0c-3.22-1.7-6.44-3.49-9.03-5.99-4.47-4.29-7.06-11-3.93-16.63,2.68-4.92,8.58-6.44,12.52-10.1l.09-.09c.54-.45.89-1.25.89-1.97v-2.24c0-.27-.27-.54-.54-.54h0c-.27,0-.54.09-.72.27-2.86,2.32-5.63,4.65-8.4,7.15-3.49,2.95-7.24,5.99-9.39,9.84h0Z" style="fill: #e8a046; stroke-width: 0px;"/>
        <path d="m20,32.9c-2.77-4.2-2.5-9.12-.09-13.5,3.13-5.19,8.58-9.48,12.88-13.32.54-.45,1.07-.8,1.52-1.25.27-.09.18-.54-.09-.54H9.53c-3.4,0-6.17,2.77-6.17,6.17v27c0,3.4,2.77,6.17,6.17,6.17h21.46c.27,0,.45-.45.18-.54-.27-.18-.45-.36-.72-.45-3.93-2.68-7.87-5.9-10.46-9.75h.01Z" style="fill: #e8a046; stroke-width: 0px;"/>
        <path d="m40.66,24.94v-.09c.06-.06.06-.03,0,.09Z" style="fill: #e8a046; stroke-width: 0px;"/>
        <circle cx="42.98" cy="25.03" r="3.04" style="fill: #e8a046; stroke-width: 0px;"/>
      </g>
    </g>
  </g>
</svg>